<?xml version="1.0" standalone="no"?>
<!DOCTYPE svg PUBLIC "-//W3C//DTD SVG 20010904//EN"
 "http://www.w3.org/TR/2001/REC-SVG-20010904/DTD/svg10.dtd">
<svg version="1.0" xmlns="http://www.w3.org/2000/svg"
 width="243.000000pt" height="170.000000pt" viewBox="0 0 243.000000 170.000000"
 preserveAspectRatio="xMidYMid meet">
<g transform="translate(0.000000,170.000000) scale(0.100000,-0.100000)"
fill="#000000" stroke="none">
<path d="M938 1533 c7 -3 16 -2 19 1 4 3 -2 6 -13 5 -11 0 -14 -3 -6 -6z"/>
<path d="M927 1509 c7 -7 15 -10 18 -7 3 3 -2 9 -12 12 -14 6 -15 5 -6 -5z"/>
<path d="M835 1466 c-9 -11 -18 -15 -26 -10 -7 4 -3 -9 9 -30 25 -42 26 -46
12 -46 -5 0 -10 7 -10 15 0 10 -10 15 -28 15 -15 0 -33 5 -38 10 -6 6 -18 8
-26 5 -17 -7 -32 -45 -17 -45 5 0 9 7 9 15 0 8 9 15 20 15 11 0 20 -3 20 -8 0
-13 -35 -39 -48 -34 -18 6 -15 -9 5 -23 20 -15 11 -47 -12 -39 -9 4 -15 20
-16 43 -1 21 -3 28 -6 16 -3 -11 -10 -26 -16 -33 -8 -10 -7 -16 2 -22 9 -5 10
-9 2 -14 -6 -4 -8 -12 -5 -18 4 -5 -5 -2 -20 7 -15 10 -26 13 -26 6 0 -6 8
-11 18 -12 14 0 14 -2 -3 -9 -13 -5 -28 -3 -44 7 -22 14 -24 14 -17 -2 5 -15
4 -16 -9 -5 -19 16 -9 33 15 25 22 -7 60 14 60 32 0 7 5 13 10 13 6 0 10 5 10
11 0 5 -4 7 -10 4 -5 -3 -10 0 -10 8 0 8 -11 17 -25 19 -14 3 -25 1 -25 -4 0
-5 -5 -6 -12 -2 -7 5 -8 3 -3 -6 6 -10 4 -12 -8 -7 -39 16 -51 18 -29 5 12 -8
20 -17 16 -21 -4 -4 -14 -1 -22 6 -13 10 -15 9 -9 -7 5 -12 3 -22 -5 -27 -10
-6 -7 -13 10 -29 24 -23 21 -40 -7 -40 -25 0 -32 10 -20 31 8 16 6 19 -13 19
-17 0 -19 -3 -9 -9 10 -6 10 -10 1 -16 -8 -5 -5 -14 12 -32 17 -18 18 -22 5
-17 -9 3 -17 10 -17 15 0 5 -7 9 -16 9 -11 0 -14 5 -10 16 9 22 -22 50 -42 38
-17 -11 -25 -44 -11 -44 5 0 9 -4 9 -10 0 -5 -24 -8 -57 -5 -50 4 -59 1 -79
-20 -24 -26 -26 -52 -5 -64 9 -6 9 -15 1 -35 -15 -40 -13 -44 16 -38 21 4 25
1 22 -14 -2 -11 -13 -20 -26 -22 -18 -3 -22 -10 -22 -39 0 -22 6 -41 17 -48
16 -12 16 -16 3 -40 -11 -21 -12 -28 -1 -34 10 -7 10 -13 2 -30 -12 -22 -26
-27 -36 -12 -3 6 2 14 11 19 14 8 14 12 3 33 -7 13 -12 30 -10 38 5 25 -9 61
-24 61 -20 0 -20 -59 1 -169 16 -85 38 -151 28 -81 -3 19 -1 46 5 60 9 24 10
24 10 3 1 -12 6 -25 11 -28 7 -4 7 -13 0 -26 -7 -11 -7 -19 -1 -19 5 0 12 6
14 13 3 6 6 2 6 -11 1 -12 7 -25 15 -28 16 -6 18 -44 2 -44 -5 0 1 -11 14 -25
16 -17 26 -21 31 -14 4 7 6 -3 4 -22 -1 -19 2 -37 8 -41 6 -4 8 -10 4 -15 -9
-9 -28 17 -21 29 3 4 1 8 -5 8 -6 0 -8 6 -5 14 3 8 1 17 -4 20 -6 3 -12 -1
-16 -9 -7 -19 -26 -19 -26 0 0 8 7 15 16 15 13 0 10 6 -10 25 -33 30 -40 32
-26 4 6 -11 9 -25 7 -32 -3 -7 -17 13 -32 43 -16 34 -24 44 -20 25 4 -16 8
-35 8 -42 0 -7 4 -10 8 -8 11 7 19 -23 12 -42 -5 -12 -2 -15 10 -10 12 4 14 2
10 -9 -5 -14 -3 -14 14 -3 18 11 24 8 54 -26 67 -77 170 -155 204 -155 9 0 13
-4 10 -10 -3 -6 1 -7 9 -4 9 3 16 2 16 -2 0 -14 59 -37 76 -30 8 3 13 2 10 -2
-4 -7 167 -56 227 -66 6 -1 37 -14 69 -28 31 -14 73 -32 95 -38 21 -7 48 -17
60 -23 13 -6 26 -8 29 -4 7 6 -34 30 -56 32 -55 5 -55 5 -42 14 11 7 10 9 -3
14 -9 4 -13 3 -10 -3 9 -14 3 -13 -51 11 -37 15 -45 22 -34 29 12 7 11 9 -5 8
-50 -2 -294 82 -303 104 -2 4 -9 8 -16 8 -23 0 -170 116 -214 169 -24 28 -38
51 -33 51 6 0 11 -4 11 -10 0 -5 5 -10 10 -10 6 0 10 7 10 15 0 8 -7 15 -15
15 -8 0 -15 5 -15 10 0 6 -11 10 -25 10 -28 0 -30 3 -13 29 9 15 16 17 31 10
10 -6 16 -17 13 -24 -7 -19 12 -29 28 -16 17 14 36 -5 36 -36 0 -25 19 -30 38
-11 9 9 17 7 34 -9 38 -34 162 -97 155 -79 -4 9 0 21 7 28 7 7 11 22 9 33 -4
16 -3 17 6 5 10 -13 15 -8 12 13 0 4 4 7 10 7 6 0 9 -7 5 -15 -3 -8 0 -15 7
-15 8 0 8 -3 -2 -9 -11 -7 -9 -10 8 -16 14 -4 20 -12 17 -21 -3 -9 -1 -12 4
-9 17 10 11 -12 -7 -31 -17 -17 -17 -18 0 -11 10 4 21 7 23 7 3 0 2 6 -2 13
-4 6 2 3 15 -7 19 -17 26 -18 55 -8 42 16 49 15 43 -2 -4 -9 -1 -13 6 -10 7 2
26 -9 42 -26 16 -16 36 -30 44 -30 13 0 13 -2 3 -9 -11 -7 -10 -10 3 -15 24
-9 32 -7 15 4 -13 9 -13 10 0 10 8 0 2 8 -15 19 -16 10 -43 33 -59 50 -23 24
-26 31 -13 31 9 0 17 -5 17 -11 0 -6 8 -8 19 -4 11 3 23 -1 32 -12 11 -15 11
-16 -1 -6 -23 21 -35 15 -15 -7 10 -11 22 -17 28 -13 5 3 7 1 4 -4 -7 -11 20
-27 39 -24 6 0 17 -6 24 -14 7 -8 19 -15 26 -15 8 0 14 -5 14 -11 0 -7 -10 -5
-25 5 -13 9 -32 16 -42 15 -16 -1 -15 -2 2 -8 11 -4 31 -12 45 -18 30 -14 63
-26 72 -27 3 -1 9 -4 13 -8 4 -4 13 -4 21 -1 8 3 14 0 14 -6 0 -6 12 -11 28
-11 15 0 55 -9 88 -19 70 -22 223 -41 316 -40 l63 1 -71 13 c-39 7 -115 32
-170 55 -54 23 -115 48 -135 55 -38 14 -144 79 -154 95 -3 5 -11 10 -16 10 -6
0 -7 -6 -3 -12 5 -8 1 -8 -12 2 -29 22 -30 24 -11 17 16 -6 16 -5 1 18 -19 28
-29 33 -20 9 5 -14 4 -15 -8 -5 -12 10 -13 18 -3 38 10 23 12 24 24 7 7 -10
13 -14 13 -10 0 4 14 -2 31 -14 16 -12 28 -25 25 -28 -3 -3 -14 2 -24 11 -26
24 -39 21 -17 -3 10 -11 43 -34 74 -51 31 -17 63 -38 73 -46 11 -10 18 -11 23
-4 3 6 0 11 -8 11 -8 0 -20 7 -27 15 -16 19 -12 19 36 -4 57 -28 152 -53 165
-45 7 4 9 3 6 -3 -4 -6 33 -19 95 -32 112 -24 141 -22 51 4 -32 9 -67 19 -78
22 -35 10 -128 60 -189 102 -33 22 -64 37 -69 34 -6 -3 -7 -2 -4 4 7 11 -64
73 -82 73 -19 0 -12 -15 17 -32 15 -10 22 -18 16 -18 -7 0 -22 9 -35 20 -22
19 -22 22 -8 32 15 10 13 14 -12 39 -16 16 -29 33 -29 39 0 5 -4 10 -8 10 -4
0 -16 15 -27 33 l-18 32 23 -20 c12 -11 52 -50 88 -87 35 -37 69 -65 75 -61 6
4 8 0 4 -10 -4 -11 -2 -14 7 -11 7 3 20 -1 27 -8 8 -8 31 -24 52 -37 30 -18
36 -26 25 -33 -9 -7 -7 -8 8 -3 11 3 42 -4 68 -16 75 -33 62 -18 -22 26 -69
36 -209 155 -196 167 2 3 -2 11 -11 18 -8 7 -15 17 -15 22 0 5 28 -18 61 -51
34 -34 68 -61 76 -61 7 0 16 -7 19 -15 3 -8 22 -24 42 -36 123 -74 132 -81
116 -97 -16 -15 -20 -14 -96 23 -16 8 -28 10 -28 6 0 -13 107 -54 119 -46 6 3
11 2 11 -4 0 -13 67 -34 81 -25 8 4 9 3 5 -4 -4 -8 0 -12 11 -12 10 0 46 -9
79 -19 40 -12 67 -15 75 -9 11 7 11 8 -1 7 -8 -1 -28 3 -45 10 -99 42 -167 77
-191 98 -15 12 -31 23 -36 23 -5 0 -6 5 -2 12 4 6 3 8 -3 5 -5 -3 -25 9 -44
29 -18 19 -39 32 -47 29 -7 -2 -10 0 -7 5 8 13 -76 111 -88 103 -5 -3 -3 -9 4
-14 8 -5 11 -9 7 -9 -4 0 9 -16 30 -36 l37 -36 -35 23 c-41 28 -56 41 -57 52
-1 5 -5 12 -9 15 -4 4 -4 1 0 -5 16 -28 -13 -11 -40 25 -54 68 -78 112 -52 96
7 -4 8 -3 4 5 -4 6 -16 9 -27 6 -11 -4 -19 -2 -19 4 0 6 3 11 8 11 4 0 7 39 7
87 0 49 5 96 11 107 9 15 11 2 10 -60 -1 -95 19 -174 44 -174 19 0 70 -43 70
-60 0 -13 -13 -13 -27 1 -17 17 -34 7 -19 -13 20 -27 49 -26 57 2 7 25 7 25
14 3 5 -14 12 -20 23 -16 11 5 14 2 9 -10 -4 -11 -1 -17 8 -17 7 0 17 -5 21
-12 5 -7 2 -9 -7 -4 -8 4 15 -20 51 -53 188 -178 482 -280 808 -281 112 0 142
3 142 13 0 11 -31 15 -132 20 -73 4 -190 18 -260 31 -122 24 -272 62 -293 74
-5 4 -17 7 -25 7 -8 0 -14 5 -13 12 2 7 -4 10 -12 7 -13 -5 -125 51 -125 63 0
3 12 2 26 -1 25 -7 25 -6 10 9 -14 14 -19 15 -32 4 -17 -14 -37 -1 -26 18 14
23 39 16 108 -29 92 -60 134 -80 214 -106 129 -41 385 -83 498 -81 56 1 46 4
-63 15 -335 34 -509 90 -686 220 -65 48 -136 138 -165 208 -25 61 -48 63 -25
3 6 -14 7 -28 4 -31 -10 -9 -34 50 -54 134 l-19 75 4 -65 c4 -70 49 -185 69
-173 5 3 8 2 4 -3 -3 -5 1 -18 9 -28 12 -17 16 -17 30 -5 16 13 16 12 0 -12
-15 -24 -15 -27 -1 -33 11 -4 14 -2 9 6 -5 7 -3 8 6 3 10 -6 12 -4 6 11 -5 14
-4 16 4 8 6 -6 8 -18 4 -27 -6 -15 -12 -19 -30 -16 -4 0 -11 -5 -16 -13 -8
-10 -9 -9 -5 3 3 9 -6 28 -19 43 -14 15 -22 32 -18 39 4 6 4 9 -1 5 -10 -9
-67 61 -59 73 3 5 1 9 -4 9 -9 0 -32 74 -32 102 0 9 3 9 10 -2 8 -11 9 -7 4
15 -3 17 -7 35 -9 42 -5 16 49 73 69 73 24 0 19 15 -9 28 -14 6 -25 19 -25 27
0 8 -11 21 -25 27 -14 6 -25 17 -25 24 0 6 -7 14 -15 18 -8 3 -15 12 -15 20 0
7 -8 16 -18 19 -11 2 -22 17 -25 36 -8 37 -30 49 -52 27 -9 -9 -24 -16 -33
-16 -21 0 -60 42 -44 48 12 4 5 32 -9 32 -5 0 -9 -7 -9 -15 0 -9 -12 -21 -27
-28 -16 -6 -32 -17 -36 -24 -13 -20 -55 -15 -67 8 -9 15 -8 24 1 35 22 26 -14
16 -51 -15 -29 -24 -33 -31 -22 -44 8 -10 9 -17 3 -21 -6 -4 -8 -13 -5 -20 6
-15 -21 -46 -40 -46 -7 0 -27 7 -45 16 -24 12 -30 19 -22 27 17 17 13 24 -19
37 -25 10 -34 10 -55 -4 -14 -9 -25 -21 -25 -26 0 -5 -11 -17 -25 -26 -23 -15
-27 -15 -50 0 -32 21 -32 21 -66 -15 -31 -33 -54 -33 -66 -2 -12 34 -56 47
-51 16 4 -23 -52 -28 -69 -6 -7 9 -13 11 -18 3 -3 -5 -11 -8 -16 -4 -5 3 -16
1 -23 -5 -25 -21 -29 20 -5 45 22 24 22 24 37 3 11 -16 16 -18 29 -7 22 18 91
20 124 4 26 -13 31 -12 53 5 14 11 43 22 66 25 63 9 63 9 97 27 35 19 94 22
123 7 15 -8 20 -4 31 21 12 31 81 89 104 89 7 0 24 11 38 24 33 30 66 24 81
-16 9 -26 32 -35 69 -29 4 0 7 -3 7 -8 0 -10 36 -21 44 -13 12 12 59 10 72 -3
19 -19 17 -25 -8 -25 -21 -1 -21 -2 -5 -11 9 -5 24 -26 32 -45 8 -19 25 -38
40 -44 29 -11 33 -35 8 -49 -16 -8 -15 -11 10 -20 16 -6 31 -20 34 -30 2 -10
18 -28 34 -40 35 -26 42 -81 10 -81 -26 0 -35 -16 -15 -24 23 -9 44 11 45 43
l1 26 8 -25 c6 -17 8 -19 9 -7 1 20 -27 68 -46 80 -8 5 -11 12 -8 18 3 5 -1 6
-10 3 -11 -5 -14 -2 -9 10 3 9 1 16 -5 16 -6 0 -11 5 -11 10 0 16 22 12 37 -7
7 -10 3 3 -9 28 -13 25 -30 45 -38 45 -9 -1 -14 6 -12 18 2 10 -1 15 -7 12
-14 -9 -47 9 -56 31 -4 10 -9 33 -10 52 -2 19 -9 37 -16 42 -15 9 -50 6 -69
-6 -8 -5 -15 -4 -18 3 -2 6 -10 8 -18 5 -10 -4 -14 3 -15 23 l-1 29 -8 -30
c-4 -16 -8 -23 -9 -14 0 8 -8 24 -16 35 -14 18 -14 17 -5 -11 l10 -30 -20 25
c-11 14 -20 28 -20 33 0 4 -8 7 -17 7 -15 0 -16 2 -3 10 11 7 8 8 -13 6 -15
-1 -41 -13 -57 -24 -30 -22 -100 -38 -100 -23 0 12 29 23 41 15 5 -3 9 0 9 5
0 6 -9 11 -20 11 -13 0 -20 7 -20 19 0 14 5 18 20 14 11 -3 17 -9 14 -14 -3
-5 0 -9 5 -9 6 0 11 4 11 9 0 31 -95 37 -115 7z m53 -22 c-5 -25 -47 -38 -55
-18 -7 18 12 34 40 34 12 0 17 -6 15 -16z m-32 -104 c-24 -35 -36 -46 -36 -33
0 10 5 24 10 29 6 6 13 21 15 34 5 27 26 43 38 31 5 -5 -7 -32 -27 -61z m-46
31 c16 -31 12 -39 -16 -33 -30 5 -43 30 -23 43 21 13 27 11 39 -10z m-186 -18
c7 -18 -17 -43 -41 -43 -16 0 -17 15 -3 41 13 24 36 25 44 2z m150 -32 c22 3
36 -1 36 -9 0 -5 -16 -8 -35 -8 -32 1 -35 3 -34 31 0 29 1 29 11 7 6 -12 16
-22 22 -21z m-214 -6 c0 -8 -4 -15 -10 -15 -5 0 -10 7 -10 15 0 8 5 15 10 15
6 0 10 -7 10 -15z m-120 -41 c0 -16 -16 -19 -25 -4 -8 13 4 32 16 25 5 -4 9
-13 9 -21z m255 16 c-3 -5 -11 -10 -16 -10 -6 0 -7 5 -4 10 3 6 11 10 16 10 6
0 7 -4 4 -10z m245 -25 c0 -18 24 -31 75 -38 27 -4 35 -3 25 3 -13 8 -12 12 4
27 16 15 18 16 13 2 -3 -9 -1 -21 5 -27 8 -8 6 -13 -8 -19 -10 -3 -25 -15 -32
-25 -12 -16 -37 -16 -29 0 2 4 -4 15 -15 25 -10 9 -18 12 -18 6 0 -6 -6 -7
-12 -2 -7 4 -5 -5 4 -19 17 -27 17 -28 -8 -65 -28 -41 -73 -136 -80 -168 -18
-87 -24 -139 -21 -177 5 -52 -7 -88 -28 -88 -8 0 -15 5 -15 10 0 6 -7 10 -15
10 -13 0 -13 3 -3 20 7 11 14 16 16 10 2 -5 13 -10 25 -10 17 0 19 2 8 9 -10
7 -14 31 -13 88 0 74 9 112 48 200 20 45 18 56 -6 43 -47 -25 -62 -73 -65
-212 -3 -103 -16 -151 -30 -108 -10 30 -8 101 3 162 5 26 6 45 2 43 -12 -7
-33 -138 -28 -171 3 -23 0 -30 -13 -30 -13 0 -15 10 -12 61 5 74 26 142 60
191 28 42 37 74 21 74 -5 0 -7 -7 -4 -15 3 -9 -1 -18 -9 -21 -17 -7 -51 -62
-65 -107 -10 -32 -10 -32 -5 8 4 35 3 37 -6 15 -11 -26 -14 -144 -4 -160 9
-15 -5 -51 -17 -44 -6 4 -5 10 3 15 9 6 10 12 4 17 -5 4 -12 14 -14 22 -2 8
-7 31 -12 50 -14 57 -10 156 7 202 10 24 30 57 47 75 21 23 27 35 20 47 -8 14
-13 12 -39 -16 -35 -39 -59 -92 -48 -109 4 -8 3 -10 -4 -5 -8 5 -13 -7 -14
-41 -6 -128 13 -227 53 -285 20 -28 24 -48 10 -48 -14 0 -107 191 -120 247
-13 54 -6 114 20 178 7 17 12 33 11 38 -1 4 3 7 8 7 6 0 10 -7 10 -15 0 -8 -5
-15 -11 -15 -5 0 -7 -5 -4 -10 4 -6 1 -18 -6 -26 -15 -19 -18 -170 -3 -196 6
-11 8 9 6 62 -3 55 1 93 12 127 17 48 68 112 106 133 24 13 47 3 32 -12 -7 -7
-6 -15 4 -25 14 -15 10 -38 -5 -28 -12 7 -64 -71 -57 -84 3 -5 2 -11 -4 -13
-6 -2 -12 -28 -15 -58 -2 -30 -2 -44 1 -30 3 14 10 29 15 34 5 6 9 21 9 34 0
14 4 21 11 16 8 -4 8 0 0 15 -13 23 -2 28 17 9 7 -7 12 -8 12 -4 0 5 7 3 15
-4 13 -11 14 -10 10 2 -9 22 26 33 41 13 11 -14 12 -14 18 0 3 9 2 13 -4 10
-20 -12 -9 8 16 32 14 13 30 21 35 17 5 -3 9 -2 8 3 -4 22 3 31 21 26 11 -3
20 -9 20 -14 0 -5 -8 -6 -17 -3 -14 5 -15 4 -4 -4 11 -8 10 -12 -8 -21 -20
-11 -30 -42 -13 -40 11 1 73 89 63 89 -6 0 -12 9 -16 19 -4 13 -12 18 -23 15
-9 -3 -6 2 8 11 14 9 17 14 8 11 -10 -3 -18 -1 -18 4 0 6 5 10 10 10 6 0 10 5
10 11 0 5 -5 7 -12 3 -7 -4 -8 -3 -4 4 10 17 26 15 26 -3z m180 -30 c0 -5 -23
-32 -50 -58 -28 -27 -50 -53 -50 -58 0 -6 7 -3 15 5 9 9 24 21 33 28 10 7 28
26 40 42 13 17 33 31 44 33 12 2 30 11 39 19 17 15 19 14 27 -17 11 -43 10
-45 -35 -54 -21 -4 -47 -12 -58 -18 -11 -6 -26 -12 -33 -13 -8 -1 -17 -6 -20
-10 -4 -4 1 -4 10 -1 10 3 20 2 23 -3 3 -4 -6 -7 -20 -6 -30 4 -68 -34 -59
-58 4 -12 2 -15 -9 -11 -19 8 -29 -32 -21 -84 8 -47 -3 -102 -15 -82 -5 7 -6
21 -4 31 3 10 0 27 -6 37 -9 16 -10 14 -11 -12 0 -51 69 -215 91 -215 5 0 7 5
3 12 -4 7 -3 8 5 4 6 -4 9 -12 6 -17 -4 -5 -1 -9 4 -9 6 0 11 -5 11 -11 0 -8
-4 -8 -14 0 -8 6 -20 10 -26 9 -16 -4 -60 58 -67 95 -3 15 -10 27 -14 27 -5 0
-7 -11 -3 -25 4 -15 2 -25 -5 -25 -6 0 -8 -7 -5 -15 4 -9 0 -15 -10 -15 -18 0
-21 11 -6 26 7 7 7 19 2 34 -5 13 -5 40 -1 60 5 19 8 51 8 70 0 33 -1 34 -10
10 -6 -14 -8 -33 -5 -42 2 -10 1 -18 -4 -18 -4 0 -5 -11 -3 -23 4 -20 1 -24
-18 -23 -15 1 -28 -8 -36 -24 -12 -24 -13 -24 -13 -3 0 12 5 25 10 28 6 4 8
10 5 15 -6 9 41 176 56 199 9 14 10 14 5 -1 -3 -11 -1 -15 8 -12 8 3 11 15 8
30 -3 15 0 24 9 24 7 0 9 3 6 7 -4 3 0 17 8 30 12 17 13 28 5 43 -6 11 -8 20
-6 20 3 0 13 -14 21 -30 15 -29 14 -33 -4 -68 -22 -41 -35 -112 -20 -112 5 0
9 12 9 28 0 15 10 47 22 72 12 25 20 52 19 60 -2 8 0 12 3 9 4 -3 21 8 40 25
25 23 30 33 20 39 -11 6 -11 12 -2 26 10 17 13 17 30 2 10 -8 18 -20 18 -26z
m-190 -45 c0 -5 -4 -10 -10 -10 -5 0 -10 5 -10 10 0 6 5 10 10 10 6 0 10 -4
10 -10z m450 -5 c0 -8 -7 -15 -16 -15 -14 0 -14 3 -4 15 7 8 14 15 16 15 2 0
4 -7 4 -15z m-656 -20 c-9 -14 -19 -24 -21 -21 -6 6 20 46 30 46 4 0 0 -11 -9
-25z m576 -45 c0 -3 -14 -14 -30 -25 -50 -33 -70 -87 -76 -205 -4 -85 -5 -88
-23 -85 -65 9 -54 217 17 297 8 10 19 15 23 12 5 -3 9 0 9 6 0 6 5 8 10 5 13
-8 13 -26 -1 -22 -19 4 -49 -47 -52 -90 -4 -52 8 -48 17 6 4 26 18 50 43 75
34 33 36 38 21 47 -10 6 -15 16 -12 27 5 14 4 14 -5 2 -5 -8 -13 -11 -18 -7
-4 5 -1 12 7 18 11 7 22 1 43 -23 15 -18 27 -35 27 -38z m-698 21 c-5 -3 -12
-15 -16 -25 -5 -15 -9 -17 -19 -7 -9 10 -8 15 7 26 12 9 16 21 12 32 -5 16 -4
16 9 -1 8 -11 11 -22 7 -25z m-147 19 c-3 -5 -1 -10 5 -10 7 0 5 -7 -4 -16 -9
-8 -20 -13 -25 -10 -5 4 -11 1 -13 -5 -2 -7 -10 -4 -18 7 -14 16 -13 17 3 11
11 -4 21 0 29 13 7 11 16 20 21 20 4 0 5 -4 2 -10z m115 -4 c0 -8 -6 -16 -14
-19 -10 -4 -12 0 -9 14 6 22 23 26 23 5z m648 -4 c2 -7 -3 -12 -12 -12 -9 0
-16 7 -16 16 0 17 22 14 28 -4z m-888 -7 c0 -8 -6 -15 -14 -15 -17 0 -28 14
-19 24 12 12 33 6 33 -9z m487 -1 c8 -21 -13 -42 -28 -27 -13 13 -5 43 11 43
6 0 13 -7 17 -16z m-442 -4 c-3 -5 -14 -10 -23 -10 -15 0 -15 2 -2 10 20 13
33 13 25 0z m802 -6 c7 -18 -12 -34 -39 -34 -22 0 -23 14 -2 34 20 20 33 20
41 0z m79 -11 c-7 -7 -26 7 -26 19 0 6 6 6 15 -2 9 -7 13 -15 11 -17z m-750
-14 l23 -21 -6 23 c-5 23 -5 23 12 7 17 -16 17 -18 2 -42 -15 -22 -16 -36 -7
-97 10 -67 8 -90 -5 -77 -3 3 -8 28 -12 56 -4 37 -9 49 -19 45 -8 -3 -14 0
-14 6 0 6 6 11 13 11 14 0 17 74 3 87 -5 4 -6 -2 -2 -13 8 -25 -12 -76 -26
-68 -18 11 -3 -31 17 -48 11 -10 15 -17 8 -18 -6 0 -13 6 -16 13 -3 6 -2 -8 0
-33 3 -25 9 -49 14 -55 5 -5 9 -18 10 -30 0 -11 3 -14 6 -7 2 6 10 9 15 6 7
-4 8 -2 4 4 -14 22 5 34 25 16 12 -10 19 -13 19 -5 0 6 -6 14 -12 17 -15 5
-21 77 -13 152 10 80 23 62 21 -30 0 -46 2 -96 6 -112 10 -40 -5 -64 -39 -62
-36 2 -56 15 -49 32 3 8 -1 14 -9 14 -7 0 -14 8 -14 18 0 9 -5 41 -10 70 -6
29 -7 60 -4 67 3 9 -4 18 -21 25 -17 6 -24 14 -20 25 3 8 10 15 16 15 15 0 38
-27 38 -44 0 -18 16 -22 22 -4 2 6 2 25 0 42 -4 27 -6 28 -13 11 -7 -19 -8
-19 -8 3 -1 28 16 28 45 1z m-114 -4 c0 -5 -5 -11 -11 -13 -6 -2 -11 4 -11 13
0 9 5 15 11 13 6 -2 11 -8 11 -13z m370 0 c0 -5 -5 -11 -11 -13 -6 -2 -11 4
-11 13 0 9 5 15 11 13 6 -2 11 -8 11 -13z m350 -13 c9 -11 10 -14 1 -8 -20 12
-61 -41 -68 -88 -4 -23 -2 -73 3 -112 l9 -69 3 55 c1 30 5 66 9 80 7 22 8 20
15 -19 16 -87 76 -190 109 -183 9 2 17 8 17 14 0 6 9 1 20 -12 14 -16 17 -26
9 -31 -8 -5 -8 -8 0 -14 9 -5 9 -10 1 -20 -9 -10 -25 1 -75 56 -36 37 -65 73
-65 79 0 5 -4 10 -9 10 -4 0 -1 -25 7 -55 9 -33 21 -55 29 -55 8 0 13 -6 11
-14 -2 -8 0 -14 4 -13 11 3 57 -66 51 -76 -3 -4 -13 1 -22 12 -10 11 -22 17
-27 13 -4 -4 -2 2 6 13 8 11 10 17 6 13 -5 -4 -15 -3 -23 4 -9 7 -17 8 -24 1
-20 -20 179 -172 204 -156 6 3 7 2 4 -3 -3 -6 25 -26 63 -45 37 -18 66 -36 64
-38 -4 -4 -95 34 -179 75 -28 14 -67 41 -88 60 -20 19 -37 32 -37 29 0 -14
-48 52 -54 75 -5 17 -4 21 2 11 17 -25 25 8 8 34 -9 14 -13 25 -9 25 4 0 -2 6
-12 14 -11 8 -24 12 -28 9 -5 -3 -6 3 -3 14 3 11 -1 35 -11 54 -21 42 -21 150
0 201 9 20 13 39 10 42 -10 9 15 32 36 33 11 1 26 -6 33 -15z m212 12 c9 -3
13 -10 10 -15 -3 -5 0 -9 5 -9 6 0 11 -5 11 -11 0 -5 -5 -7 -12 -3 -7 4 -8 3
-4 -4 4 -6 14 -9 24 -6 11 4 8 -2 -8 -15 -14 -11 -32 -21 -40 -21 -9 0 -11 -3
-5 -8 11 -8 14 -72 4 -72 -4 0 -12 14 -20 32 -7 17 -15 26 -17 20 -9 -27 -18
-9 -17 36 0 52 24 67 36 22 6 -21 7 -22 8 -4 1 11 -5 26 -11 32 -10 10 -10 15
2 22 18 12 15 11 34 4z m-976 -15 c-2 -6 -8 -10 -13 -10 -5 0 -11 4 -13 10 -2
6 4 11 13 11 9 0 15 -5 13 -11z m802 -20 c0 -6 -4 -7 -10 -4 -5 3 -10 11 -10
16 0 6 5 7 10 4 6 -3 10 -11 10 -16z m-287 -7 c-7 -5 -22 -33 -33 -63 -11 -30
-18 -41 -14 -25 9 49 32 96 46 96 10 0 10 -2 1 -8z m257 -7 c0 -8 -7 -15 -15
-15 -16 0 -20 12 -8 23 11 12 23 8 23 -8z m-749 -17 c10 -18 8 -24 -12 -39
-30 -22 -41 -15 -33 19 12 49 26 56 45 20z m24 12 c-3 -5 -1 -10 5 -10 6 0 8
-4 5 -10 -3 -5 -2 -10 3 -10 6 0 8 -9 5 -20 -3 -12 0 -20 6 -20 7 0 9 5 5 12
-5 7 -3 8 6 3 11 -7 10 -10 -1 -19 -12 -9 -12 -18 -4 -44 6 -18 15 -29 19 -25
4 4 4 0 1 -9 -3 -8 1 -23 11 -32 9 -9 14 -20 10 -23 -10 -10 -35 17 -48 53 -6
19 -18 34 -25 34 -7 0 -13 5 -13 11 0 5 5 7 10 4 6 -3 10 -1 10 4 0 6 -2 11
-4 11 -2 0 -11 3 -20 6 -12 4 -14 0 -10 -20 3 -20 0 -26 -13 -26 -15 0 -16 2
-3 10 14 9 6 15 -15 10 -5 -1 1 10 14 24 18 19 27 23 32 14 13 -21 21 15 10
44 -5 14 -7 29 -4 32 10 10 15 7 8 -4z m701 -30 c8 0 12 -4 9 -10 -3 -5 -3
-10 2 -10 4 0 8 -26 9 -58 1 -57 1 -57 -10 -20 -15 49 -33 68 -46 48 -13 -20
-12 -3 2 45 7 25 13 34 16 23 2 -10 10 -18 18 -18z m-803 3 c-18 -7 -16 -23 2
-23 16 0 20 -12 8 -23 -9 -10 -35 31 -28 43 3 6 12 10 18 9 9 0 9 -2 0 -6z
m714 -35 c-3 -8 -6 -5 -6 6 -1 11 2 17 5 13 3 -3 4 -12 1 -19z m292 -132 c6
-16 10 -31 7 -33 -2 -2 9 -18 25 -34 16 -16 29 -34 29 -39 0 -6 -13 4 -29 20
-15 17 -36 30 -45 30 -9 0 -16 5 -16 10 0 6 4 10 9 10 5 0 1 28 -10 63 -21 70
-24 91 -9 82 6 -3 11 0 11 7 1 7 5 -9 9 -37 4 -27 12 -63 19 -79z m-969 74 c7
-16 20 -38 29 -48 20 -23 74 -52 98 -52 25 -1 58 -29 77 -68 9 -18 21 -30 26
-27 6 3 7 -1 4 -9 -4 -10 2 -17 18 -20 31 -6 88 -16 114 -20 45 -5 164 -133
164 -176 0 -15 -32 -12 -55 6 -17 13 -18 16 -5 24 13 8 12 13 -6 37 -30 40
-85 76 -98 63 -14 -14 -26 -12 -26 5 0 17 -41 30 -71 22 -26 -7 -49 1 -49 17
-1 21 -48 65 -66 61 -11 -2 -25 -4 -32 -4 -7 -1 -10 -6 -7 -11 3 -6 17 -7 31
-4 14 4 24 2 24 -5 0 -6 -5 -10 -11 -8 -6 1 -14 -4 -17 -12 -3 -9 0 -11 8 -6
9 6 11 4 6 -4 -5 -7 0 -22 11 -34 15 -19 16 -20 1 -8 -19 15 -25 2 -7 -16 8
-8 8 -13 0 -17 -6 -4 -12 1 -13 11 0 10 -2 23 -3 28 -2 6 -3 17 -4 25 -1 11
-3 12 -9 3 -9 -14 -52 -6 -52 9 0 5 -11 19 -25 32 -13 13 -22 25 -19 28 8 9
-43 78 -52 70 -5 -4 -3 0 3 8 12 18 10 64 -5 103 -7 15 -8 27 -3 27 5 0 14
-13 21 -30z m-21 -54 c1 -6 -5 -1 -13 9 -8 11 -12 24 -8 29 5 9 20 -17 21 -38z
m81 30 c0 -8 -4 -17 -9 -21 -12 -7 -24 12 -16 25 9 15 25 12 25 -4z m918 -21
c-3 -3 -9 2 -12 12 -6 14 -5 15 5 6 7 -7 10 -15 7 -18z m-293 -73 c-9 -10 -25
52 -18 72 5 17 8 12 15 -23 4 -25 6 -47 3 -49z m-602 64 c4 -10 1 -13 -8 -9
-8 3 -12 9 -9 14 7 12 11 11 17 -5z m-110 -22 c-8 -4 0 -27 23 -71 19 -37 31
-70 26 -75 -8 -8 -64 82 -69 112 -4 22 5 40 19 39 9 0 10 -2 1 -5z m290 -41
c-3 -7 0 -13 6 -13 11 0 74 -80 67 -87 -4 -4 -106 92 -106 101 0 3 7 6 15 6 9
0 12 6 9 18 -5 13 -4 14 4 3 6 -8 8 -20 5 -28z m309 12 c0 -5 -5 -11 -11 -13
-6 -2 -11 4 -11 13 0 9 5 15 11 13 6 -2 11 -8 11 -13z m-282 -107 c0 -16 -31
-7 -37 10 -4 9 -9 19 -13 22 -11 9 -50 68 -50 76 0 10 99 -98 100 -108z m292
70 c-7 -7 -12 -8 -12 -2 0 14 12 26 19 19 2 -3 -1 -11 -7 -17z m120 0 c-7 -7
-12 -8 -12 -2 0 14 12 26 19 19 2 -3 -1 -11 -7 -17z m-142 -8 c6 -11 9 -20 7
-20 -2 0 -12 9 -22 20 -10 11 -13 20 -7 20 6 0 16 -9 22 -20z m308 -1 c-2 -6
-8 -10 -13 -10 -5 0 -11 4 -13 10 -2 6 4 11 13 11 9 0 15 -5 13 -11z m-226
-28 c-14 -9 7 -25 61 -49 15 -6 33 -24 40 -39 6 -16 17 -34 24 -41 14 -14 -3
-76 -18 -66 -5 3 -6 10 -3 16 4 7 2 8 -4 4 -7 -4 -12 -3 -12 2 0 6 7 12 15 16
23 9 18 21 -20 47 -19 13 -33 30 -30 37 2 6 0 12 -5 12 -5 0 -16 7 -24 16 -12
11 -16 12 -16 2 0 -29 13 -57 23 -51 6 3 7 1 3 -5 -14 -22 77 -136 163 -205
35 -27 58 -36 46 -17 -3 6 1 7 10 3 12 -4 13 -8 4 -13 -8 -6 -2 -13 19 -24 36
-19 46 -20 37 -6 -4 6 15 0 42 -12 26 -13 50 -26 51 -30 2 -5 8 -8 13 -8 6 0
7 5 3 11 -5 8 -1 8 14 0 12 -6 24 -16 27 -21 4 -6 11 -8 16 -5 5 4 9 2 9 -3 0
-5 15 -14 33 -20 31 -11 31 -11 2 -6 -16 3 -43 8 -60 11 -62 9 -179 34 -189
40 -5 4 -21 8 -35 9 -13 2 -27 7 -30 11 -3 5 -38 28 -77 51 -83 48 -151 119
-186 194 -22 45 -40 99 -40 118 1 3 -7 13 -15 23 -21 22 -9 22 17 0 11 -10 20
-27 20 -38 0 -61 88 -188 176 -255 69 -52 209 -119 226 -109 7 5 22 6 33 3 16
-4 17 -3 5 5 -8 6 -24 8 -35 5 -16 -4 -17 -3 -5 5 9 7 10 11 3 11 -6 0 -14 -4
-17 -9 -8 -12 -119 47 -171 90 -22 19 -43 33 -47 32 -3 -1 -29 22 -57 52 -44
49 -69 96 -95 183 -11 35 12 26 27 -10 11 -27 14 -29 20 -15 4 11 3 16 -3 12
-11 -7 -13 9 -4 43 5 17 10 20 18 12 8 -8 7 -13 -2 -19z m-234 -13 c-2 -3 6
-15 16 -27 11 -12 14 -21 8 -21 -7 0 -4 -8 6 -18 9 -11 21 -17 25 -14 5 2 4 9
-2 15 -16 16 -14 32 2 18 8 -6 17 -8 20 -5 4 4 17 -16 29 -44 13 -29 29 -54
37 -57 20 -8 24 0 8 16 -15 16 -31 50 -29 62 1 4 -2 7 -8 7 -5 0 -10 7 -10 15
0 8 7 15 15 15 8 0 15 -8 15 -18 0 -10 9 -35 19 -55 21 -42 21 -69 0 -75 -11
-3 -11 -1 1 7 8 6 10 11 4 11 -18 0 -24 -13 -13 -27 9 -10 7 -13 -6 -13 -13 0
-16 6 -13 25 3 13 2 22 -3 20 -4 -3 -17 10 -28 29 -23 36 -27 51 -11 41 5 -3
7 0 4 9 -5 12 -9 13 -19 3 -7 -7 -10 -16 -7 -22 3 -5 -9 3 -27 20 -17 16 -29
35 -26 42 2 8 -2 16 -10 19 -17 7 -21 38 -4 32 6 -2 9 -6 7 -10z m726 -4 c3
-8 2 -12 -4 -9 -6 3 -10 10 -10 16 0 14 7 11 14 -7z m-914 -86 c0 -4 22 -6 50
-5 27 2 48 2 46 -1 -3 -2 6 -14 20 -27 25 -23 30 -35 15 -35 -5 0 -13 9 -16
20 -9 29 -22 24 -21 -7 1 -22 6 -28 22 -27 14 0 20 -4 17 -13 -7 -18 -15 -17
-60 10 -74 43 -103 70 -97 89 3 12 0 18 -10 18 -17 0 -21 12 -9 24 7 7 42 -32
43 -46z m706 23 c-3 -5 5 -17 19 -27 13 -10 22 -21 19 -26 -3 -4 -16 4 -29 20
-20 23 -24 42 -9 42 3 0 3 -4 0 -9z m-184 -55 c4 3 8 0 8 -5 0 -6 -2 -11 -4
-11 -2 0 -12 -3 -22 -7 -11 -4 -15 -3 -11 4 4 6 0 16 -8 23 -8 7 -15 17 -15
22 0 5 10 0 22 -11 11 -11 25 -18 30 -15z m464 10 c3 -8 12 -12 19 -10 7 3 16
1 20 -5 3 -6 -1 -11 -9 -11 -8 0 -20 -8 -26 -17 -11 -17 -11 -17 -6 0 6 19 -2
47 -14 47 -5 0 -6 -10 -3 -21 5 -19 4 -20 -16 -10 -22 12 -26 23 -14 34 12 12
43 7 49 -7z m-1146 -39 c0 -7 9 -18 21 -25 11 -7 18 -19 15 -27 -3 -8 0 -12 7
-10 7 3 23 -5 37 -16 14 -11 18 -17 10 -13 -13 7 -13 5 -1 -9 7 -9 17 -15 21
-12 5 3 10 1 12 -3 4 -10 95 -73 128 -89 14 -6 19 -12 12 -12 -7 -1 -34 11
-60 25 -25 14 -55 28 -65 30 -11 2 -26 13 -34 24 -8 11 -20 20 -26 20 -17 1
-89 69 -82 80 3 4 1 20 -5 35 -7 17 -7 24 0 20 6 -3 10 -12 10 -18z m390 -29
c0 -4 -6 -5 -13 -2 -7 2 -13 14 -13 25 0 19 1 19 13 3 7 -10 13 -21 13 -26z
m146 -34 c-11 -8 -25 -14 -30 -13 -6 0 -5 3 2 6 6 2 9 9 6 15 -9 14 19 30 31
17 7 -7 4 -15 -9 -25z m359 26 c3 -5 1 -10 -4 -10 -6 0 -11 5 -11 10 0 6 2 10
4 10 3 0 8 -4 11 -10z m315 -100 c0 -5 -7 -10 -16 -10 -8 0 -12 5 -9 10 3 6
10 10 16 10 5 0 9 -4 9 -10z m20 -20 c0 -5 -7 -10 -16 -10 -8 0 -12 5 -9 10 3
6 10 10 16 10 5 0 9 -4 9 -10z m485 -74 c39 -8 57 -14 40 -15 -16 0 -66 8
-110 19 -86 21 -45 19 70 -4z"/>
<path d="M850 1111 c0 -5 5 -13 10 -16 6 -3 10 -2 10 4 0 5 -4 13 -10 16 -5 3
-10 2 -10 -4z"/>
<path d="M1075 1250 c-3 -5 -1 -10 4 -10 6 0 11 5 11 10 0 6 -2 10 -4 10 -3 0
-8 -4 -11 -10z"/>
<path d="M1140 1210 c-13 -8 -12 -10 3 -10 9 0 17 5 17 10 0 12 -1 12 -20 0z"/>
<path d="M1195 1200 c3 -5 8 -10 11 -10 2 0 4 5 4 10 0 6 -5 10 -11 10 -5 0
-7 -4 -4 -10z"/>
<path d="M1109 1173 c-13 -16 -12 -17 4 -4 16 13 21 21 13 21 -2 0 -10 -8 -17
-17z"/>
<path d="M975 1149 c-4 -6 -5 -12 -2 -15 2 -3 7 2 10 11 7 17 1 20 -8 4z"/>
<path d="M900 981 c0 -6 4 -13 10 -16 6 -3 7 1 4 9 -7 18 -14 21 -14 7z"/>
<path d="M880 880 c0 -5 5 -10 11 -10 5 0 7 5 4 10 -3 6 -8 10 -11 10 -2 0 -4
-4 -4 -10z"/>
<path d="M1153 945 c1 -53 6 -76 19 -90 18 -18 18 -18 18 4 0 12 -4 20 -9 17
-4 -3 -8 7 -8 22 0 15 -5 47 -11 72 -11 45 -11 45 -9 -25z"/>
<path d="M1158 833 c6 -2 9 -10 6 -15 -4 -7 -2 -8 5 -4 13 9 5 26 -12 25 -9 0
-8 -2 1 -6z"/>
<path d="M1056 1082 c-3 -5 1 -9 9 -9 8 0 12 4 9 9 -3 4 -7 8 -9 8 -2 0 -6 -4
-9 -8z"/>
<path d="M1213 729 c-2 -23 3 -25 10 -4 4 8 3 16 -1 19 -4 3 -9 -4 -9 -15z"/>
<path d="M1260 1055 c0 -5 5 -17 10 -25 5 -8 10 -10 10 -5 0 6 -5 17 -10 25
-5 8 -10 11 -10 5z"/>
<path d="M330 874 c0 -6 5 -15 12 -22 9 -9 9 -12 -2 -12 -11 -1 -11 -3 3 -11
9 -5 17 -17 17 -26 0 -15 2 -14 13 2 10 12 16 14 21 7 4 -7 2 -12 -3 -12 -6 0
-11 -6 -11 -14 0 -22 34 -76 48 -76 6 0 12 -8 12 -17 0 -13 3 -14 12 -5 9 9 6
16 -12 32 -13 11 -18 20 -12 20 7 0 11 6 10 13 -2 6 3 11 10 9 24 -4 11 17
-25 44 -21 16 -50 39 -65 53 -16 14 -28 20 -28 15z m100 -94 c0 -5 -4 -10 -10
-10 -5 0 -10 5 -10 10 0 6 5 10 10 10 6 0 10 -4 10 -10z"/>
<path d="M956 672 c-3 -5 1 -9 9 -9 8 0 12 4 9 9 -3 4 -7 8 -9 8 -2 0 -6 -4
-9 -8z"/>
<path d="M1000 583 c0 -4 16 -26 35 -47 45 -51 45 -40 0 14 -19 23 -35 38 -35
33z"/>
<path d="M1398 323 c6 -2 18 -2 25 0 6 3 1 5 -13 5 -14 0 -19 -2 -12 -5z"/>
<path d="M970 1445 c-7 -9 -11 -17 -8 -20 2 -2 12 4 21 15 9 11 13 20 8 20 -5
0 -14 -7 -21 -15z"/>
<path d="M785 1430 c-3 -5 -1 -10 4 -10 6 0 11 5 11 10 0 6 -2 10 -4 10 -3 0
-8 -4 -11 -10z"/>
<path d="M1032 1394 c-7 -8 -8 -14 -3 -14 10 0 25 19 20 25 -2 1 -10 -3 -17
-11z"/>
<path d="M990 1381 c0 -10 19 -25 25 -20 1 2 -3 10 -11 17 -8 7 -14 8 -14 3z"/>
<path d="M932 1358 c-7 -7 -12 -17 -12 -22 0 -6 5 -3 11 7 5 9 18 17 27 17 15
0 15 -2 2 -10 -8 -5 -10 -10 -5 -10 6 0 16 4 23 9 11 7 10 10 -3 15 -23 9 -29
8 -43 -6z"/>
<path d="M1061 1344 c0 -11 3 -14 6 -6 3 7 2 16 -1 19 -3 4 -6 -2 -5 -13z"/>
<path d="M1128 1320 c9 -16 23 -32 30 -35 7 -2 1 11 -14 30 -32 43 -39 45 -16
5z"/>
<path d="M990 1310 c-9 -6 -10 -10 -3 -10 6 0 15 5 18 10 8 12 4 12 -15 0z"/>
<path d="M1240 1286 c0 -8 4 -17 9 -20 5 -4 7 3 4 14 -6 23 -13 26 -13 6z"/>
<path d="M1306 1287 c3 -10 9 -15 12 -12 3 3 0 11 -7 18 -10 9 -11 8 -5 -6z"/>
<path d="M348 1263 c7 -3 16 -2 19 1 4 3 -2 6 -13 5 -11 0 -14 -3 -6 -6z"/>
<path d="M840 1253 c0 -7 -6 -13 -14 -13 -8 0 -13 -11 -13 -27 0 -16 2 -23 4
-16 2 7 12 9 21 6 13 -4 13 -2 -3 11 -16 14 -17 17 -3 12 21 -6 30 5 17 24 -6
10 -9 11 -9 3z"/>
<path d="M650 1230 c-8 -5 -10 -10 -5 -10 6 0 17 5 25 10 8 5 11 10 5 10 -5 0
-17 -5 -25 -10z"/>
<path d="M192 1126 c7 -8 15 -12 17 -11 5 6 -10 25 -20 25 -5 0 -4 -6 3 -14z"/>
<path d="M232 1088 c-7 -26 -20 -54 -29 -64 -17 -17 -17 -18 0 -11 10 4 22 7
27 7 10 0 24 82 18 102 -3 7 -10 -8 -16 -34z"/>
<path d="M187 1063 c-10 -9 -9 -23 1 -23 5 0 9 7 9 15 0 17 -1 18 -10 8z"/>
<path d="M135 1011 c-3 -5 -1 -12 5 -16 5 -3 10 1 10 9 0 18 -6 21 -15 7z"/>
<path d="M1377 1013 c-4 -3 -7 -11 -7 -17 0 -6 5 -5 12 2 6 6 9 14 7 17 -3 3
-9 2 -12 -2z"/>
<path d="M166 1002 c-3 -5 -11 -52 -17 -104 -10 -82 -9 -105 6 -174 9 -43 32
-107 51 -141 34 -62 130 -167 144 -158 4 2 18 -7 31 -21 36 -38 128 -96 144
-90 9 3 12 0 9 -8 -4 -10 2 -12 19 -9 14 3 34 0 45 -6 12 -6 23 -7 26 -3 3 5
-14 15 -37 22 -79 23 -140 62 -208 132 -38 39 -69 77 -69 84 0 7 33 -19 73
-60 75 -76 183 -139 257 -152 25 -4 12 5 -44 30 -115 52 -187 105 -259 194
-33 41 -42 41 -42 -2 0 -19 3 -32 7 -29 5 2 8 0 8 -5 0 -5 9 -19 20 -32 36
-41 21 -41 -16 0 -20 22 -37 51 -38 64 0 13 -5 22 -10 18 -5 -3 -7 1 -4 10 4
8 0 15 -7 15 -11 0 -11 -5 -4 -20 6 -10 8 -21 6 -23 -7 -7 -60 107 -60 126 0
8 -3 20 -8 25 -4 6 -13 50 -19 98 -9 66 -9 104 0 153 10 63 9 87 -4 66z"/>
<path d="M1454 975 c-4 -8 -11 -12 -16 -9 -6 4 -8 -1 -4 -14 7 -22 -7 -37 -24
-27 -8 5 -7 11 1 21 8 10 8 14 0 14 -12 0 -12 0 -16 -50 -2 -19 -1 -27 2 -17
2 9 13 17 24 17 18 0 23 -10 20 -39 -2 -7 2 -10 8 -6 13 8 14 42 2 47 -5 2 -4
19 4 41 12 35 11 54 -1 22z"/>
<path d="M1461 934 c0 -11 3 -14 6 -6 3 7 2 16 -1 19 -3 4 -6 -2 -5 -13z"/>
<path d="M185 832 c3 -62 9 -121 15 -130 8 -13 9 -11 4 11 -5 21 -3 26 9 22
13 -5 13 3 0 72 -26 140 -33 147 -28 25z"/>
<path d="M1494 880 c0 -13 4 -16 10 -10 7 7 7 13 0 20 -6 6 -10 3 -10 -10z"/>
<path d="M1460 850 c0 -5 5 -10 11 -10 5 0 7 5 4 10 -3 6 -8 10 -11 10 -2 0
-4 -4 -4 -10z"/>
<path d="M1505 849 c-4 -6 -5 -12 -2 -15 2 -3 7 2 10 11 7 17 1 20 -8 4z"/>
<path d="M1466 822 c7 -4 14 -16 17 -27 4 -15 5 -14 6 8 1 20 -4 27 -16 27
-12 0 -14 -3 -7 -8z"/>
<path d="M122 760 c0 -14 2 -19 5 -12 2 6 2 18 0 25 -3 6 -5 1 -5 -13z"/>
<path d="M1275 750 c3 -5 8 -10 11 -10 2 0 4 5 4 10 0 6 -5 10 -11 10 -5 0 -7
-4 -4 -10z"/>
<path d="M1525 720 c10 -11 20 -20 23 -20 3 0 -3 9 -13 20 -10 11 -20 20 -23
20 -3 0 3 -9 13 -20z"/>
<path d="M121 674 c0 -11 3 -14 6 -6 3 7 2 16 -1 19 -3 4 -6 -2 -5 -13z"/>
<path d="M1614 652 c3 -5 1 -12 -6 -14 -8 -3 -9 -6 -1 -11 6 -4 13 0 17 8 3 8
0 17 -6 21 -6 4 -8 3 -4 -4z"/>
<path d="M1650 656 c0 -2 7 -7 16 -10 8 -3 12 -2 9 4 -6 10 -25 14 -25 6z"/>
<path d="M230 618 c0 -9 5 -20 10 -23 13 -8 13 5 0 25 -8 13 -10 13 -10 -2z"/>
<path d="M1661 619 c-1 -8 6 -24 15 -35 15 -19 15 -19 6 1 -5 11 -12 27 -15
35 -5 13 -6 13 -6 -1z"/>
<path d="M121 604 c0 -11 3 -14 6 -6 3 7 2 16 -1 19 -3 4 -6 -2 -5 -13z"/>
<path d="M156 605 c-9 -26 -7 -32 5 -12 6 10 9 21 6 23 -2 3 -7 -2 -11 -11z"/>
<path d="M432 591 c9 -27 158 -128 263 -180 149 -74 209 -94 257 -87 20 3 49
1 64 -4 15 -6 35 -8 43 -5 11 4 -2 13 -39 26 -65 23 -71 23 -64 4 7 -18 -14
-20 -53 -3 -15 6 -32 10 -37 9 -5 -1 -6 5 -2 14 3 9 6 19 6 21 0 2 5 4 11 4 6
0 9 -6 6 -14 -6 -14 21 -32 31 -21 3 3 0 5 -6 5 -7 0 -12 6 -12 13 1 6 9 2 19
-10 22 -27 30 -29 27 -8 -1 8 -20 26 -42 41 -21 14 -50 36 -64 48 l-25 21 24
-27 c29 -33 20 -36 -21 -7 -19 14 -27 27 -23 37 5 12 3 13 -10 2 -13 -11 -20
-11 -41 0 -18 10 -21 16 -12 22 9 6 6 7 -8 4 -11 -4 -40 0 -63 9 -23 8 -39 10
-36 5 3 -6 11 -10 16 -10 6 0 55 -22 110 -50 60 -29 107 -47 117 -43 13 5 11
0 -7 -20 -20 -22 -27 -24 -47 -15 -13 6 -24 15 -24 19 0 5 -8 6 -17 3 -14 -5
-15 -4 -4 4 10 7 21 6 38 -5 13 -9 26 -14 28 -11 5 4 -24 20 -140 73 -44 20
-98 46 -120 56 -22 10 -58 35 -80 54 -38 33 -71 46 -63 26z m260 -148 c18 -10
34 -21 36 -25 2 -4 11 -4 20 -1 13 5 14 3 6 -6 -12 -13 -17 -11 -98 36 -33 19
-2 15 36 -4z"/>
<path d="M1705 571 c-3 -5 -2 -12 3 -15 5 -3 9 1 9 9 0 17 -3 19 -12 6z"/>
<path d="M1752 571 c-11 -7 -11 -9 0 -14 9 -3 15 1 15 9 0 8 -1 14 -1 14 -1 0
-7 -4 -14 -9z"/>
<path d="M199 543 c15 -29 14 -38 -3 -24 -10 9 -15 8 -19 -1 -3 -9 5 -13 24
-13 34 -1 35 2 8 35 -17 21 -19 22 -10 3z"/>
<path d="M1819 543 c-13 -16 -12 -17 4 -4 16 13 21 21 13 21 -2 0 -10 -8 -17
-17z"/>
<path d="M1640 534 c0 -8 40 -44 48 -44 3 0 -5 11 -18 25 -24 26 -30 29 -30
19z"/>
<path d="M1948 483 c7 -3 16 -2 19 1 4 3 -2 6 -13 5 -11 0 -14 -3 -6 -6z"/>
<path d="M250 460 c0 -6 7 -10 15 -10 8 0 15 2 15 4 0 2 -7 6 -15 10 -8 3 -15
1 -15 -4z"/>
<path d="M888 429 c23 -23 192 -99 223 -99 17 0 19 -3 10 -14 -9 -11 -5 -16
20 -25 18 -6 42 -11 54 -11 13 0 51 -9 86 -19 72 -22 274 -39 249 -22 -8 6
-29 11 -46 11 -17 0 -55 7 -84 16 -29 9 -72 18 -94 20 -23 2 -52 5 -66 7 -14
1 -29 8 -33 15 -4 6 -14 12 -22 12 -18 0 -108 42 -116 54 -4 4 -9 2 -11 -5 -2
-7 -9 -9 -17 -5 -11 7 -11 10 0 18 10 6 7 7 -8 3 -23 -6 -76 14 -125 47 -35
24 -43 23 -20 -3z m272 -119 c12 -8 11 -10 -7 -10 -13 0 -23 5 -23 10 0 13 11
13 30 0z m207 -56 c-3 -3 -12 -4 -19 -1 -8 3 -5 6 6 6 11 1 17 -2 13 -5z"/>
<path d="M2228 403 c6 -2 18 -2 25 0 6 3 1 5 -13 5 -14 0 -19 -2 -12 -5z"/>
<path d="M2368 403 c6 -2 18 -2 25 0 6 3 1 5 -13 5 -14 0 -19 -2 -12 -5z"/>
<path d="M330 393 c0 -7 7 -16 16 -21 9 -5 15 -12 15 -15 -1 -4 1 -7 4 -7 26
0 28 2 13 11 -10 5 -15 17 -12 27 5 14 4 15 -5 2 -10 -13 -12 -13 -21 0 -6 9
-10 10 -10 3z"/>
<path d="M1420 390 c31 -21 239 -79 325 -91 108 -16 312 -16 327 -1 7 7 -12 9
-63 8 -148 -6 -424 33 -532 75 -52 21 -82 25 -57 9z"/>
<path d="M410 354 c0 -20 128 -99 221 -136 73 -30 212 -59 268 -57 32 1 29 3
-24 15 l-60 13 50 -3 c28 -3 88 -10 135 -16 57 -8 130 -10 220 -5 158 9 159 9
230 0 32 -4 70 -3 90 3 34 11 33 11 -20 10 -87 -2 -201 14 -247 33 -46 19 -58
35 -20 24 19 -5 20 -4 4 5 -9 6 -21 9 -26 5 -10 -5 -92 18 -123 35 -12 7 -18
7 -18 0 0 -5 18 -14 40 -20 22 -6 40 -16 40 -22 0 -6 9 -8 21 -5 15 4 19 2 15
-9 -3 -8 -2 -13 3 -10 5 3 23 0 41 -8 37 -15 31 -23 -18 -24 -22 0 -30 3 -25
11 3 7 -3 4 -14 -6 -29 -26 -75 -16 -238 53 -83 35 -258 72 -288 61 -17 -6
-13 -9 24 -14 147 -22 184 -31 159 -38 -21 -6 -20 -7 10 -6 34 1 204 -52 195
-61 -2 -2 -17 0 -32 6 -16 5 -74 9 -130 10 -56 0 -106 3 -111 6 -6 3 -12 2
-14 -2 -1 -5 -18 -5 -36 0 -18 5 -31 12 -28 16 2 4 -11 7 -28 8 -33 0 -147 54
-223 105 -24 16 -43 26 -43 23z"/>
<path d="M1858 353 c7 -3 16 -2 19 1 4 3 -2 6 -13 5 -11 0 -14 -3 -6 -6z"/>
<path d="M414 288 c-19 -23 -19 -23 2 -5 11 9 24 14 29 10 4 -5 5 -2 1 5 -9
16 -10 16 -32 -10z"/>
<path d="M460 281 c0 -5 -7 -17 -16 -25 -8 -9 -10 -16 -4 -16 6 0 13 7 17 16
3 8 12 13 21 9 12 -4 13 -3 2 10 -14 17 -20 19 -20 6z"/>
<path d="M570 280 c8 -5 20 -10 25 -10 6 0 3 5 -5 10 -8 5 -19 10 -25 10 -5 0
-3 -5 5 -10z"/>
<path d="M2118 283 c7 -3 16 -2 19 1 4 3 -2 6 -13 5 -11 0 -14 -3 -6 -6z"/>
<path d="M419 263 c-13 -16 -12 -17 4 -4 16 13 21 21 13 21 -2 0 -10 -8 -17
-17z"/>
<path d="M648 273 c7 -3 16 -2 19 1 4 3 -2 6 -13 5 -11 0 -14 -3 -6 -6z"/>
<path d="M605 260 c-3 -5 1 -10 10 -10 9 0 13 5 10 10 -3 6 -8 10 -10 10 -2 0
-7 -4 -10 -10z"/>
<path d="M1815 250 c-22 -5 -79 -11 -125 -14 -47 -4 -111 -12 -143 -18 -54
-10 -178 -7 -237 7 -14 3 -7 -2 15 -10 39 -16 197 -29 300 -26 28 1 165 11
305 21 140 11 284 22 319 25 35 2 65 6 67 8 16 16 -428 21 -501 7z m151 -18
c-21 -2 -42 0 -47 5 -4 4 13 6 39 3 l47 -5 -39 -3z m-76 -1 c17 -5 3 -7 -40
-7 -47 -1 -57 1 -35 7 38 9 45 9 75 0z m-263 -17 c-3 -3 -12 -4 -19 -1 -8 3
-5 6 6 6 11 1 17 -2 13 -5z m50 0 c-3 -3 -12 -4 -19 -1 -8 3 -5 6 6 6 11 1 17
-2 13 -5z m60 0 c-3 -3 -12 -4 -19 -1 -8 3 -5 6 6 6 11 1 17 -2 13 -5z"/>
<path d="M515 216 c17 -15 53 -35 82 -46 59 -22 167 -38 143 -21 -8 6 -23 11
-33 11 -9 0 -57 16 -105 35 -121 50 -121 50 -87 21z"/>
<path d="M668 233 c7 -3 16 -2 19 1 4 3 -2 6 -13 5 -11 0 -14 -3 -6 -6z"/>
<path d="M2335 220 c-4 -6 1 -7 12 -3 17 6 17 5 1 -13 -16 -19 -16 -20 1 -20
11 0 17 6 14 13 -8 21 6 15 31 -12 24 -26 36 -31 36 -16 0 8 -71 61 -82 61 -4
0 -10 -4 -13 -10z"/>
<path d="M2397 219 c7 -7 15 -10 18 -7 3 3 -2 9 -12 12 -14 6 -15 5 -6 -5z"/>
<path d="M2288 213 c7 -3 16 -2 19 1 4 3 -2 6 -13 5 -11 0 -14 -3 -6 -6z"/>
<path d="M454 194 c-18 -15 -18 -15 2 -5 14 7 24 7 31 0 8 -8 13 -7 18 3 5 7
5 10 0 6 -4 -4 -13 -3 -20 2 -8 6 -18 5 -31 -6z"/>
<path d="M2168 203 c7 -3 16 -2 19 1 4 3 -2 6 -13 5 -11 0 -14 -3 -6 -6z"/>
<path d="M550 150 c0 -5 5 -10 11 -10 5 0 7 5 4 10 -3 6 -8 10 -11 10 -2 0 -4
-4 -4 -10z"/>
<path d="M808 143 c7 -3 16 -2 19 1 4 3 -2 6 -13 5 -11 0 -14 -3 -6 -6z"/>
<path d="M908 133 c7 -3 16 -2 19 1 4 3 -2 6 -13 5 -11 0 -14 -3 -6 -6z"/>
<path d="M1478 133 c7 -3 16 -2 19 1 4 3 -2 6 -13 5 -11 0 -14 -3 -6 -6z"/>
<path d="M990 120 c-8 -5 -10 -10 -5 -10 6 0 17 5 25 10 8 5 11 10 5 10 -5 0
-17 -5 -25 -10z"/>
<path d="M1388 123 c6 -2 18 -2 25 0 6 3 1 5 -13 5 -14 0 -19 -2 -12 -5z"/>
<path d="M566 112 c-3 -5 8 -6 25 -4 16 2 29 6 29 8 0 8 -49 4 -54 -4z"/>
<path d="M675 110 c27 -12 43 -12 25 0 -8 5 -22 9 -30 9 -10 0 -8 -3 5 -9z"/>
<path d="M1548 113 c7 -3 16 -2 19 1 4 3 -2 6 -13 5 -11 0 -14 -3 -6 -6z"/>
</g>
</svg>
